<svg width="23" height="22" viewBox="0 0 23 22" fill="none" xmlns="http://www.w3.org/2000/svg">
<path d="M0 2.935C0 2.22714 0.259016 1.64316 0.777027 1.18307C1.29504 0.722964 1.96848 0.49292 2.7973 0.49292C3.61133 0.49292 4.26994 0.719418 4.77317 1.17246C5.29118 1.63964 5.55019 2.24838 5.55019 2.99871C5.55019 3.67825 5.29859 4.24451 4.79537 4.69755C4.27736 5.16473 3.59653 5.39833 2.7529 5.39833H2.7307C1.91666 5.39833 1.25805 5.16473 0.754826 4.69755C0.251601 4.23037 0 3.64285 0 2.935ZM0.28861 21.5161V7.33076H5.21718V21.5161H0.28861ZM7.94788 21.5161H12.8764V13.5952C12.8764 13.0997 12.9357 12.7175 13.0541 12.4485C13.2613 11.9672 13.5758 11.5602 13.9976 11.2275C14.4194 10.8948 14.9485 10.7284 15.5849 10.7284C17.2426 10.7284 18.0714 11.7973 18.0714 13.935V21.5161H23V13.3829C23 11.2876 22.482 9.69852 21.4459 8.61551C20.4099 7.5325 19.0409 6.99099 17.3388 6.99099C15.4295 6.99099 13.9421 7.7767 12.8764 9.34813V9.3906H12.8542L12.8764 9.34813V7.33076H7.94788C7.97747 7.78378 7.99228 9.19239 7.99228 11.5566C7.99228 13.9208 7.97747 17.2407 7.94788 21.5161Z" fill="#27AE60"/>
</svg>
