<svg width="25" height="19" viewBox="0 0 25 19" fill="none" xmlns="http://www.w3.org/2000/svg">
<path d="M7.84376 19C17.2839 19 22.4457 11.6885 22.4457 5.35183C22.4457 5.14293 22.4457 4.93403 22.4351 4.73508C23.4355 4.05864 24.3082 3.21309 25 2.24817C24.0847 2.62618 23.0949 2.88482 22.0519 3.00419C23.1162 2.40733 23.9251 1.47225 24.3082 0.348168C23.3184 0.895288 22.2222 1.29319 21.0515 1.51204C20.1149 0.576963 18.7846 0 17.3052 0C14.4742 0 12.1754 2.14869 12.1754 4.79476C12.1754 5.17277 12.218 5.54084 12.3138 5.88901C8.04598 5.69005 4.26777 3.78011 1.73478 0.875393C1.29843 1.58168 1.043 2.40733 1.043 3.28272C1.043 4.94398 1.94764 6.41623 3.33121 7.27173C2.49042 7.25183 1.70285 7.03299 1.01107 6.67487C1.01107 6.69477 1.01107 6.71466 1.01107 6.73455C1.01107 9.0623 2.77778 10.9921 5.12984 11.4398C4.70413 11.5492 4.24649 11.6089 3.7782 11.6089C3.44828 11.6089 3.12899 11.5791 2.80971 11.5194C3.45892 13.4293 5.35334 14.812 7.59898 14.8518C5.84291 16.1351 3.6292 16.901 1.22393 16.901C0.808855 16.901 0.404427 16.8812 0 16.8314C2.24564 18.2042 4.94891 19 7.84376 19Z" fill="#27AE60"/>
</svg>
