<svg width="14" height="14" viewBox="0 0 14 14" fill="none" xmlns="http://www.w3.org/2000/svg">
<path d="M12.6671 13.2826C12.9661 13.5692 13.4409 13.5592 13.7275 13.2601C14.0141 12.9611 14.0041 12.4863 13.705 12.1997L12.6671 13.2826ZM6.719 3.84703C6.719 3.43282 6.38322 3.09703 5.969 3.09703C5.55479 3.09703 5.219 3.43282 5.219 3.84703H6.719ZM5.219 7.79997C5.219 8.21419 5.55479 8.54997 5.969 8.54997C6.38322 8.54997 6.719 8.21419 6.719 7.79997H5.219ZM8.03102 6.5735C8.44523 6.5735 8.78102 6.23771 8.78102 5.8235C8.78102 5.40929 8.44523 5.0735 8.03102 5.0735V6.5735ZM3.90699 5.0735C3.49277 5.0735 3.15699 5.40929 3.15699 5.8235C3.15699 6.23771 3.49277 6.5735 3.90699 6.5735V5.0735ZM5.969 10.0147C3.5059 10.0147 1.56396 8.10859 1.56396 5.8235H0.0639648C0.0639648 8.99628 2.73801 11.5147 5.969 11.5147V10.0147ZM1.56396 5.8235C1.56396 3.53841 3.5059 1.63232 5.969 1.63232V0.132324C2.73801 0.132324 0.0639648 2.65072 0.0639648 5.8235H1.56396ZM5.969 1.63232C8.43211 1.63232 10.374 3.53841 10.374 5.8235H11.874C11.874 2.65072 9.2 0.132324 5.969 0.132324V1.63232ZM13.705 12.1997L10.1331 8.776L9.09519 9.85888L12.6671 13.2826L13.705 12.1997ZM10.374 5.8235C10.374 6.97039 9.89027 8.0139 9.09519 8.776L10.1331 9.85888C11.2038 8.83262 11.874 7.40555 11.874 5.8235H10.374ZM9.09519 8.776C8.29955 9.53863 7.19583 10.0147 5.969 10.0147V11.5147C7.58923 11.5147 9.06303 10.8846 10.1331 9.85888L9.09519 8.776ZM5.219 3.84703V7.79997H6.719V3.84703H5.219ZM8.03102 5.0735H3.90699V6.5735H8.03102V5.0735Z" fill="#0F172A"/>
</svg>
